<?xml version="1.0" standalone="no"?>
<!DOCTYPE svg PUBLIC "-//W3C//DTD SVG 20010904//EN"
 "http://www.w3.org/TR/2001/REC-SVG-20010904/DTD/svg10.dtd">
<svg version="1.0" xmlns="http://www.w3.org/2000/svg"
 width="260.000000pt" height="260.000000pt" viewBox="0 0 260.000000 260.000000"
 preserveAspectRatio="xMidYMid meet">
<metadata>
Created by potrace 1.11, written by Peter Selinger 2001-2013
</metadata>
<g transform="translate(0.000000,260.000000) scale(0.100000,-0.100000)"
fill="#000000" stroke="none">
<path d="M2210 2501 c-64 -21 -117 -70 -578 -536 l-490 -496 -36 -187 c-20
-103 -36 -197 -36 -209 0 -31 9 -30 231 13 l187 36 496 490 c310 306 505 506
517 531 64 124 11 281 -115 341 -43 20 -138 30 -176 17z m130 -136 c38 -19 60
-63 60 -115 0 -38 -6 -48 -67 -111 l-67 -70 -14 28 c-20 40 -91 112 -130 132
l-33 17 70 67 c63 61 73 67 111 67 22 0 54 -7 70 -15z m-297 -238 c43 -18 103
-87 112 -127 7 -31 3 -37 -61 -100 -38 -36 -187 -182 -331 -324 l-261 -258
-15 29 c-19 36 -84 101 -120 119 l-28 15 323 329 c178 182 329 330 336 330 7
0 27 -6 45 -13z m-702 -807 c66 -66 64 -86 -10 -112 l-54 -18 -34 33 -33 34
15 44 c8 24 17 50 20 57 9 25 47 11 96 -38z"/>
<path d="M2208 2301 l-41 -38 58 -58 58 -58 38 41 c48 51 50 82 10 123 -41 40
-72 38 -123 -10z"/>
<path d="M1495 1580 l-80 -80 105 0 105 0 80 80 80 80 -105 0 -105 0 -80 -80z"/>
<path d="M511 2279 c-66 -13 -142 -60 -184 -115 -70 -91 -68 -63 -65 -920 l3
-769 28 -57 c32 -65 89 -121 156 -152 45 -21 58 -21 609 -24 l564 -3 46 23
c72 34 580 544 616 617 l26 55 0 463 c0 255 -3 463 -7 463 -4 0 -40 -33 -80
-72 l-73 -72 0 -386 c0 -212 -3 -394 -6 -405 -11 -44 -38 -50 -234 -53 -245
-5 -230 8 -230 -201 -1 -176 -10 -239 -36 -258 -15 -11 -123 -13 -571 -11
-539 3 -552 3 -579 24 -15 11 -37 33 -48 48 -21 27 -21 35 -21 791 0 756 0
764 21 791 11 15 33 37 48 48 27 21 39 21 634 24 l607 3 73 72 c39 39 72 75
72 79 0 11 -1314 8 -1369 -3z"/>
<path d="M749 1631 c-16 -16 -29 -37 -29 -46 0 -24 27 -72 45 -79 9 -3 92 -6
184 -6 l166 0 80 80 80 80 -249 0 -248 0 -29 -29z"/>
<path d="M745 1240 c-26 -29 -25 -85 3 -113 21 -20 34 -22 151 -25 l129 -4 12
59 c6 32 14 68 17 81 l5 22 -149 0 c-138 0 -151 -2 -168 -20z"/>
<path d="M1590 1164 l-65 -66 55 5 c77 9 116 55 94 111 -3 9 -9 16 -13 16 -4
0 -36 -30 -71 -66z"/>
</g>
</svg>
